<svg xmlns="http://www.w3.org/2000/svg" xmlns:xlink="http://www.w3.org/1999/xlink" width="1000" zoomAndPan="magnify" viewBox="0 0 750 374.999991" height="500" preserveAspectRatio="xMidYMid meet" version="1.0"><defs><g/><clipPath id="271021ae53"><path d="M 0.480469 0 L 710.878906 0 L 710.878906 375 L 0.480469 375 Z M 0.480469 0 " clip-rule="nonzero"/></clipPath><clipPath id="487e5ffd65"><rect x="0" width="711" y="0" height="375"/></clipPath><clipPath id="1a39e39653"><rect x="0" width="248" y="0" height="62"/></clipPath><clipPath id="a0401018c2"><rect x="0" width="711" y="0" height="375"/></clipPath></defs><g><g clip-path="url(#a0401018c2)"><g clip-path="url(#271021ae53)"><g><g clip-path="url(#487e5ffd65)"><g fill="#ffffff" fill-opacity="1"><g transform="translate(1.125067, 281.638114)"><g><path d="M 208.015625 -220.953125 C 212.804688 -219.671875 218 -218.234375 223.59375 -216.640625 C 229.1875 -215.046875 233.976562 -212.648438 237.96875 -209.453125 C 241.96875 -206.253906 243.96875 -201.460938 243.96875 -195.078125 C 243.96875 -189.328125 241.171875 -184.851562 235.578125 -181.65625 C 229.984375 -178.457031 224.789062 -175.101562 220 -171.59375 C 214.882812 -167.757812 209.289062 -165.757812 203.21875 -165.59375 C 197.144531 -165.4375 191.234375 -165.039062 185.484375 -164.40625 C 171.742188 -163.445312 160.640625 -161.207031 152.171875 -157.6875 C 143.703125 -154.175781 136.910156 -148.820312 131.796875 -141.625 C 126.691406 -134.4375 122.222656 -124.613281 118.390625 -112.15625 C 115.515625 -102.25 113.117188 -92.421875 111.203125 -82.671875 C 109.285156 -72.929688 108.164062 -62.945312 107.84375 -52.71875 C 107.519531 -43.132812 104.003906 -34.75 97.296875 -27.5625 C 90.585938 -20.375 82.757812 -16.78125 73.8125 -16.78125 C 68.695312 -16.78125 63.101562 -18.375 57.03125 -21.5625 C 50.96875 -24.757812 45.535156 -28.832031 40.734375 -33.78125 C 35.941406 -38.738281 32.910156 -43.9375 31.640625 -49.375 C 30.359375 -53.84375 29.632812 -58.394531 29.46875 -63.03125 C 29.3125 -67.664062 29.234375 -72.21875 29.234375 -76.6875 C 29.234375 -80.195312 29.3125 -83.707031 29.46875 -87.21875 C 29.632812 -90.738281 29.71875 -94.097656 29.71875 -97.296875 C 29.71875 -103.367188 29.394531 -109.441406 28.75 -115.515625 C 28.113281 -121.585938 26.835938 -127.65625 24.921875 -133.71875 C 24.285156 -135 23.96875 -137.078125 23.96875 -139.953125 C 23.96875 -147.617188 28.117188 -154.96875 36.421875 -162 C 44.734375 -169.03125 54.800781 -175.976562 66.625 -182.84375 C 78.445312 -189.71875 89.3125 -196.191406 99.21875 -202.265625 C 105.925781 -206.421875 112.875 -210.015625 120.0625 -213.046875 C 127.25 -216.078125 135 -217.59375 143.3125 -217.59375 C 147.144531 -217.59375 150.976562 -217.191406 154.8125 -216.390625 C 158.644531 -215.597656 162.476562 -215.203125 166.3125 -215.203125 C 173.34375 -215.203125 180.289062 -215.835938 187.15625 -217.109375 C 194.03125 -218.390625 200.984375 -219.671875 208.015625 -220.953125 Z M 208.015625 -220.953125 "/></g></g></g><g fill="#ffffff" fill-opacity="1"><g transform="translate(197.159568, 281.638114)"><g><path d="M 23.96875 -109.765625 C 25.238281 -116.785156 26.351562 -124.367188 27.3125 -132.515625 C 28.28125 -140.671875 29.878906 -148.421875 32.109375 -155.765625 C 34.347656 -163.117188 37.625 -169.109375 41.9375 -173.734375 C 46.25 -178.367188 52.398438 -180.6875 60.390625 -180.6875 C 69.660156 -180.6875 78.285156 -176.691406 86.265625 -168.703125 C 94.253906 -160.722656 98.25 -150.820312 98.25 -139 C 96.976562 -132.289062 95.144531 -125.335938 92.75 -118.140625 C 90.351562 -110.953125 89.15625 -103.6875 89.15625 -96.34375 C 89.15625 -94.101562 89.953125 -91.785156 91.546875 -89.390625 C 93.140625 -86.992188 95.535156 -85.796875 98.734375 -85.796875 C 103.210938 -85.796875 107.285156 -88.585938 110.953125 -94.171875 C 114.628906 -99.765625 118.066406 -106.632812 121.265625 -114.78125 C 124.460938 -122.9375 127.816406 -131.007812 131.328125 -139 C 134.835938 -146.988281 138.988281 -153.773438 143.78125 -159.359375 C 148.582031 -164.953125 154.175781 -167.75 160.5625 -167.75 C 165.039062 -167.75 170.070312 -166.226562 175.65625 -163.1875 C 181.25 -160.15625 186.039062 -155.921875 190.03125 -150.484375 C 194.03125 -145.054688 196.03125 -138.671875 196.03125 -131.328125 C 196.03125 -128.773438 195.550781 -126.539062 194.59375 -124.625 C 189.800781 -112.15625 184.207031 -99.050781 177.8125 -85.3125 C 171.425781 -71.570312 164 -58.628906 155.53125 -46.484375 C 147.0625 -34.347656 137.472656 -24.441406 126.765625 -16.765625 C 116.066406 -9.097656 104.007812 -5.265625 90.59375 -5.265625 C 74.9375 -5.265625 62.15625 -9.335938 52.25 -17.484375 C 42.34375 -25.640625 35.148438 -35.628906 30.671875 -47.453125 C 26.203125 -59.273438 23.96875 -70.617188 23.96875 -81.484375 C 23.96875 -85.953125 24.207031 -90.582031 24.6875 -95.375 C 25.164062 -100.164062 25.5625 -104.960938 25.875 -109.765625 C 25.875 -109.765625 25.710938 -109.765625 25.390625 -109.765625 C 25.078125 -109.765625 24.601562 -109.765625 23.96875 -109.765625 Z M 23.96875 -109.765625 "/></g></g></g><g fill="#ffffff" fill-opacity="1"><g transform="translate(369.228912, 281.638114)"><g><path d="M 141.875 -98.734375 C 131.644531 -94.265625 123.492188 -87.15625 117.421875 -77.40625 C 111.359375 -67.65625 106.40625 -56.867188 102.5625 -45.046875 C 98.726562 -33.222656 94.894531 -21.878906 91.0625 -11.015625 C 87.226562 -0.160156 82.351562 8.78125 76.4375 15.8125 C 70.53125 22.84375 62.625 26.359375 52.71875 26.359375 C 43.132812 26.359375 35.546875 23.878906 29.953125 18.921875 C 24.359375 13.972656 20.363281 7.664062 17.96875 0 C 15.570312 -7.664062 14.375 -15.972656 14.375 -24.921875 C 14.375 -35.785156 16.53125 -46.328125 20.84375 -56.546875 C 25.15625 -66.773438 31.304688 -75.644531 39.296875 -83.15625 C 47.285156 -90.664062 56.394531 -95.695312 66.625 -98.25 C 75.882812 -100.488281 83.867188 -104.5625 90.578125 -110.46875 C 97.296875 -116.382812 103.6875 -122.695312 109.75 -129.40625 C 115.820312 -136.113281 122.210938 -141.941406 128.921875 -146.890625 C 135.640625 -151.847656 143.628906 -154.328125 152.890625 -154.328125 C 162.160156 -154.328125 170.390625 -151.769531 177.578125 -146.65625 C 184.765625 -141.550781 190.832031 -135.160156 195.78125 -127.484375 C 200.738281 -119.816406 204.492188 -111.828125 207.046875 -103.515625 C 209.609375 -95.210938 210.890625 -87.707031 210.890625 -81 C 210.890625 -70.132812 212.726562 -60.066406 216.40625 -50.796875 C 220.082031 -41.535156 228.628906 -34.828125 242.046875 -30.671875 C 246.515625 -29.398438 250.664062 -27.164062 254.5 -23.96875 C 258.34375 -20.769531 260.265625 -16.613281 260.265625 -11.5 C 260.265625 -3.832031 257.066406 2.554688 250.671875 7.671875 C 244.285156 12.785156 237.414062 15.34375 230.0625 15.34375 C 215.363281 15.34375 203.140625 11.585938 193.390625 4.078125 C 183.648438 -3.429688 175.660156 -13.097656 169.421875 -24.921875 C 163.191406 -36.742188 158 -49.203125 153.84375 -62.296875 C 149.695312 -75.398438 145.707031 -87.546875 141.875 -98.734375 Z M 141.875 -98.734375 "/></g></g></g><g fill="#ffffff" fill-opacity="1"><g transform="translate(605.524856, 281.638114)"><g><path d="M 57.515625 -96.34375 C 65.503906 -95.695312 72.613281 -92.414062 78.84375 -86.5 C 85.070312 -80.59375 90.023438 -73.484375 93.703125 -65.171875 C 97.378906 -56.867188 99.21875 -48.566406 99.21875 -40.265625 C 99.21875 -32.273438 95.941406 -24.285156 89.390625 -16.296875 C 82.835938 -8.304688 74.925781 -4.3125 65.65625 -4.3125 C 58.3125 -4.3125 51.441406 -7.265625 45.046875 -13.171875 C 38.660156 -19.085938 33.550781 -26.757812 29.71875 -36.1875 C 25.882812 -45.613281 23.96875 -55.28125 23.96875 -65.1875 C 23.96875 -77.644531 27.238281 -85.953125 33.78125 -90.109375 C 40.332031 -94.265625 48.242188 -96.34375 57.515625 -96.34375 Z M 94.421875 -227.671875 C 93.140625 -217.765625 89.460938 -209.210938 83.390625 -202.015625 C 77.328125 -194.828125 70.300781 -191.234375 62.3125 -191.234375 C 52.082031 -191.234375 43.210938 -194.75 35.703125 -201.78125 C 28.191406 -208.8125 24.4375 -216.640625 24.4375 -225.265625 C 24.4375 -234.535156 27.789062 -242.765625 34.5 -249.953125 C 41.21875 -257.140625 49.367188 -260.734375 58.953125 -260.734375 C 65.023438 -260.734375 70.695312 -258.972656 75.96875 -255.453125 C 81.238281 -251.941406 85.628906 -247.628906 89.140625 -242.515625 C 92.660156 -237.410156 94.421875 -232.460938 94.421875 -227.671875 Z M 94.421875 -227.671875 "/></g></g></g></g></g></g><g transform="matrix(1, 0, 0, 1, 383, 298)"><g clip-path="url(#1a39e39653)"><g fill="#ffffff" fill-opacity="1"><g transform="translate(0.964798, 48.149066)"><g><path d="M 10.78125 -30.328125 C 16.300781 -30.328125 20.472656 -29.0625 23.296875 -26.53125 C 26.128906 -24 27.546875 -20.222656 27.546875 -15.203125 C 27.546875 -9.878906 26.128906 -6.015625 23.296875 -3.609375 C 20.472656 -1.203125 16.328125 0 10.859375 0 L 3.46875 0 L 3.46875 -30.328125 Z M 11.875 -5.65625 C 15.050781 -5.65625 17.484375 -6.441406 19.171875 -8.015625 C 20.867188 -9.597656 21.71875 -12.039062 21.71875 -15.34375 C 21.71875 -17.34375 21.296875 -19.035156 20.453125 -20.421875 C 19.609375 -21.816406 18.394531 -22.875 16.8125 -23.59375 C 15.238281 -24.3125 13.367188 -24.671875 11.203125 -24.671875 L 9.25 -24.671875 L 9.25 -5.65625 Z M 11.875 -5.65625 "/></g></g></g><g fill="#ffffff" fill-opacity="1"><g transform="translate(30.450478, 48.149066)"><g/></g></g><g fill="#ffffff" fill-opacity="1"><g transform="translate(42.27855, 48.149066)"><g><path d="M 3.46875 -30.328125 L 20.03125 -30.328125 L 20.03125 -24.71875 L 9.25 -24.71875 L 9.25 -19.1875 L 20.03125 -19.1875 L 20.03125 -13.6875 L 9.25 -13.6875 L 9.25 -5.65625 L 20.03125 -5.65625 L 20.03125 0 L 3.46875 0 Z M 3.46875 -30.328125 "/></g></g></g><g fill="#ffffff" fill-opacity="1"><g transform="translate(64.202715, 48.149066)"><g/></g></g><g fill="#ffffff" fill-opacity="1"><g transform="translate(76.030787, 48.149066)"><g><path d="M 11.03125 0.765625 C 8.832031 0.765625 6.9375 0.222656 5.34375 -0.859375 C 3.75 -1.953125 2.390625 -3.609375 1.265625 -5.828125 L 6.125 -8.75 C 6.832031 -7.425781 7.59375 -6.429688 8.40625 -5.765625 C 9.226562 -5.109375 10.144531 -4.78125 11.15625 -4.78125 C 11.800781 -4.78125 12.390625 -4.90625 12.921875 -5.15625 C 13.460938 -5.40625 13.882812 -5.75 14.1875 -6.1875 C 14.5 -6.625 14.65625 -7.097656 14.65625 -7.609375 C 14.65625 -8.140625 14.550781 -8.613281 14.34375 -9.03125 C 14.132812 -9.457031 13.832031 -9.875 13.4375 -10.28125 C 13.039062 -10.695312 12.445312 -11.226562 11.65625 -11.875 C 9.351562 -13.8125 7.625 -15.328125 6.46875 -16.421875 C 5.3125 -17.523438 4.394531 -18.644531 3.71875 -19.78125 C 3.039062 -20.925781 2.703125 -22.148438 2.703125 -23.453125 C 2.703125 -24.859375 3.070312 -26.144531 3.8125 -27.3125 C 4.5625 -28.476562 5.578125 -29.398438 6.859375 -30.078125 C 8.140625 -30.753906 9.53125 -31.09375 11.03125 -31.09375 C 12.800781 -31.09375 14.367188 -30.675781 15.734375 -29.84375 C 17.097656 -29.019531 18.457031 -27.816406 19.8125 -26.234375 L 15.625 -22.6875 C 14.78125 -23.644531 13.984375 -24.363281 13.234375 -24.84375 C 12.492188 -25.320312 11.726562 -25.5625 10.9375 -25.5625 C 10.175781 -25.5625 9.554688 -25.363281 9.078125 -24.96875 C 8.597656 -24.570312 8.359375 -24.066406 8.359375 -23.453125 C 8.359375 -22.992188 8.503906 -22.550781 8.796875 -22.125 C 9.097656 -21.707031 9.566406 -21.21875 10.203125 -20.65625 C 10.835938 -20.09375 11.875 -19.234375 13.3125 -18.078125 C 15.03125 -16.703125 16.34375 -15.5625 17.25 -14.65625 C 18.164062 -13.757812 18.90625 -12.753906 19.46875 -11.640625 C 20.039062 -10.523438 20.328125 -9.265625 20.328125 -7.859375 C 20.328125 -6.191406 19.929688 -4.703125 19.140625 -3.390625 C 18.347656 -2.085938 17.25 -1.066406 15.84375 -0.328125 C 14.4375 0.398438 12.832031 0.765625 11.03125 0.765625 Z M 11.03125 0.765625 "/></g></g></g><g fill="#ffffff" fill-opacity="1"><g transform="translate(97.997192, 48.149066)"><g/></g></g><g fill="#ffffff" fill-opacity="1"><g transform="translate(109.825264, 48.149066)"><g><path d="M 3.46875 -30.328125 L 9.25 -30.328125 L 9.25 0 L 3.46875 0 Z M 3.46875 -30.328125 "/></g></g></g><g fill="#ffffff" fill-opacity="1"><g transform="translate(122.540436, 48.149066)"><g/></g></g><g fill="#ffffff" fill-opacity="1"><g transform="translate(134.368508, 48.149066)"><g><path d="M 33.625 -15.421875 L 33.625 -15.375 C 33.625 -12.132812 33.003906 -9.300781 31.765625 -6.875 C 30.523438 -4.457031 28.765625 -2.578125 26.484375 -1.234375 C 24.203125 0.0976562 21.554688 0.765625 18.546875 0.765625 C 15.273438 0.765625 12.394531 0.03125 9.90625 -1.4375 C 7.414062 -2.90625 5.492188 -4.863281 4.140625 -7.3125 C 2.785156 -9.757812 2.109375 -12.4375 2.109375 -15.34375 C 2.109375 -18.1875 2.796875 -20.800781 4.171875 -23.1875 C 5.554688 -25.582031 7.488281 -27.488281 9.96875 -28.90625 C 12.445312 -30.332031 15.25 -31.046875 18.375 -31.046875 C 21.25 -31.046875 23.722656 -30.570312 25.796875 -29.625 C 27.867188 -28.6875 29.757812 -27.273438 31.46875 -25.390625 L 27.421875 -21.375 C 26.097656 -22.757812 24.703125 -23.796875 23.234375 -24.484375 C 21.773438 -25.171875 20.171875 -25.515625 18.421875 -25.515625 C 16.453125 -25.515625 14.660156 -25.050781 13.046875 -24.125 C 11.441406 -23.195312 10.1875 -21.953125 9.28125 -20.390625 C 8.382812 -18.828125 7.9375 -17.113281 7.9375 -15.25 C 7.9375 -13.332031 8.414062 -11.570312 9.375 -9.96875 C 10.332031 -8.363281 11.640625 -7.097656 13.296875 -6.171875 C 14.960938 -5.242188 16.796875 -4.78125 18.796875 -4.78125 C 20.796875 -4.78125 22.476562 -5.203125 23.84375 -6.046875 C 25.21875 -6.890625 26.3125 -8.179688 27.125 -9.921875 L 18.34375 -9.921875 L 18.34375 -15.421875 Z M 33.625 -15.421875 "/></g></g></g><g fill="#ffffff" fill-opacity="1"><g transform="translate(169.852704, 48.149066)"><g/></g></g><g fill="#ffffff" fill-opacity="1"><g transform="translate(181.680776, 48.149066)"><g><path d="M 22.015625 -30.328125 L 27.796875 -30.328125 L 27.796875 0 L 22.21875 0 L 9.25 -19.859375 L 9.25 0 L 3.46875 0 L 3.46875 -30.328125 L 9 -30.328125 L 22.015625 -10.4375 Z M 22.015625 -30.328125 "/></g></g></g><g fill="#ffffff" fill-opacity="1"><g transform="translate(212.940676, 48.149066)"><g/></g></g><g fill="#ffffff" fill-opacity="1"><g transform="translate(224.768748, 48.149066)"><g><path d="M 11.03125 0.765625 C 8.832031 0.765625 6.9375 0.222656 5.34375 -0.859375 C 3.75 -1.953125 2.390625 -3.609375 1.265625 -5.828125 L 6.125 -8.75 C 6.832031 -7.425781 7.59375 -6.429688 8.40625 -5.765625 C 9.226562 -5.109375 10.144531 -4.78125 11.15625 -4.78125 C 11.800781 -4.78125 12.390625 -4.90625 12.921875 -5.15625 C 13.460938 -5.40625 13.882812 -5.75 14.1875 -6.1875 C 14.5 -6.625 14.65625 -7.097656 14.65625 -7.609375 C 14.65625 -8.140625 14.550781 -8.613281 14.34375 -9.03125 C 14.132812 -9.457031 13.832031 -9.875 13.4375 -10.28125 C 13.039062 -10.695312 12.445312 -11.226562 11.65625 -11.875 C 9.351562 -13.8125 7.625 -15.328125 6.46875 -16.421875 C 5.3125 -17.523438 4.394531 -18.644531 3.71875 -19.78125 C 3.039062 -20.925781 2.703125 -22.148438 2.703125 -23.453125 C 2.703125 -24.859375 3.070312 -26.144531 3.8125 -27.3125 C 4.5625 -28.476562 5.578125 -29.398438 6.859375 -30.078125 C 8.140625 -30.753906 9.53125 -31.09375 11.03125 -31.09375 C 12.800781 -31.09375 14.367188 -30.675781 15.734375 -29.84375 C 17.097656 -29.019531 18.457031 -27.816406 19.8125 -26.234375 L 15.625 -22.6875 C 14.78125 -23.644531 13.984375 -24.363281 13.234375 -24.84375 C 12.492188 -25.320312 11.726562 -25.5625 10.9375 -25.5625 C 10.175781 -25.5625 9.554688 -25.363281 9.078125 -24.96875 C 8.597656 -24.570312 8.359375 -24.066406 8.359375 -23.453125 C 8.359375 -22.992188 8.503906 -22.550781 8.796875 -22.125 C 9.097656 -21.707031 9.566406 -21.21875 10.203125 -20.65625 C 10.835938 -20.09375 11.875 -19.234375 13.3125 -18.078125 C 15.03125 -16.703125 16.34375 -15.5625 17.25 -14.65625 C 18.164062 -13.757812 18.90625 -12.753906 19.46875 -11.640625 C 20.039062 -10.523438 20.328125 -9.265625 20.328125 -7.859375 C 20.328125 -6.191406 19.929688 -4.703125 19.140625 -3.390625 C 18.347656 -2.085938 17.25 -1.066406 15.84375 -0.328125 C 14.4375 0.398438 12.832031 0.765625 11.03125 0.765625 Z M 11.03125 0.765625 "/></g></g></g></g></g></g></g></svg>