<svg xmlns="http://www.w3.org/2000/svg" xmlns:xlink="http://www.w3.org/1999/xlink" width="500" zoomAndPan="magnify" viewBox="0 0 375 374.999991" height="500" preserveAspectRatio="xMidYMid meet" version="1.0"><defs><g/><clipPath id="d9180a3504"><rect x="0" width="375" y="0" height="375"/></clipPath></defs><g transform="matrix(1, 0, 0, 1, 0, 0)"><g clip-path="url(#d9180a3504)"><g fill="#ffffff" fill-opacity="1"><g transform="translate(-18.112726, 368.708567)"><g><path d="M 332.953125 -320.609375 C 340.148438 -318.304688 347.941406 -315.734375 356.328125 -312.890625 C 364.710938 -310.046875 371.820312 -306.046875 377.65625 -300.890625 C 383.5 -295.734375 386.179688 -288.289062 385.703125 -278.5625 C 385.273438 -269.8125 380.6875 -263.210938 371.9375 -258.765625 C 363.195312 -254.328125 355.050781 -249.613281 347.5 -244.625 C 339.425781 -239.175781 330.765625 -236.554688 321.515625 -236.765625 C 312.273438 -236.972656 303.253906 -236.804688 294.453125 -236.265625 C 273.484375 -235.828125 256.425781 -233.25 243.28125 -228.53125 C 230.132812 -223.820312 219.398438 -216.1875 211.078125 -205.625 C 202.765625 -195.070312 195.234375 -180.460938 188.484375 -161.796875 C 183.367188 -146.941406 178.984375 -132.171875 175.328125 -117.484375 C 171.679688 -102.804688 169.238281 -87.703125 168 -72.171875 C 166.789062 -57.597656 160.816406 -45.09375 150.078125 -34.65625 C 139.335938 -24.21875 127.15625 -19.332031 113.53125 -20 C 105.757812 -20.382812 97.375 -23.234375 88.375 -28.546875 C 79.375 -33.867188 71.414062 -40.472656 64.5 -48.359375 C 57.582031 -56.253906 53.351562 -64.378906 51.8125 -72.734375 C 50.207031 -79.640625 49.453125 -86.625 49.546875 -93.6875 C 49.648438 -100.75 49.867188 -107.679688 50.203125 -114.484375 C 50.460938 -119.828125 50.847656 -125.164062 51.359375 -130.5 C 51.867188 -135.84375 52.242188 -140.945312 52.484375 -145.8125 C 52.929688 -155.039062 52.894531 -164.296875 52.375 -173.578125 C 51.851562 -182.859375 50.363281 -192.191406 47.90625 -201.578125 C 47.019531 -203.578125 46.679688 -206.765625 46.890625 -211.140625 C 47.460938 -222.796875 54.332031 -233.660156 67.5 -243.734375 C 80.664062 -253.804688 96.5 -263.625 115 -273.1875 C 133.5 -282.757812 150.507812 -291.796875 166.03125 -300.296875 C 176.550781 -306.117188 187.390625 -311.066406 198.546875 -315.140625 C 209.710938 -319.222656 221.613281 -320.957031 234.25 -320.34375 C 240.082031 -320.050781 245.882812 -319.15625 251.65625 -317.65625 C 257.4375 -316.164062 263.242188 -315.28125 269.078125 -315 C 279.773438 -314.46875 290.394531 -314.914062 300.9375 -316.34375 C 311.488281 -317.769531 322.160156 -319.191406 332.953125 -320.609375 Z M 332.953125 -320.609375 "/></g></g></g></g></g></svg>